<?xml version="1.0" encoding="utf-8"?>
<!-- Generator: Adobe Illustrator 26.0.1, SVG Export Plug-In . SVG Version: 6.00 Build 0)  -->
<svg version="1.2" baseProfile="tiny" id="Camada_1"
	 xmlns="http://www.w3.org/2000/svg" xmlns:xlink="http://www.w3.org/1999/xlink" x="0px" y="0px" viewBox="0 0 1080 1080"
	 overflow="visible" xml:space="preserve">
<g id="LOGO_03">
	<path fill="#091943" d="M186.6,629.53L186.6,629.53c-31.73,0-57.44-25.72-57.44-57.44v-57.97c0-31.73,25.72-57.44,57.44-57.44h0
		c31.73,0,57.44,25.72,57.44,57.44v57.97C244.05,603.81,218.33,629.53,186.6,629.53z"/>
	<path fill="#091943" d="M189.98,629.53h-55.17c-24.16,0-43.74-19.58-43.74-43.74v0c0-24.16,19.58-43.74,43.74-43.74h55.17
		c24.16,0,43.74,19.58,43.74,43.74v0C233.72,609.95,214.14,629.53,189.98,629.53z"/>
	<path fill="#091943" d="M206.87,544.15H117.9c-14.83,0-26.84-12.02-26.84-26.84v-33.8c0-14.83,12.02-26.84,26.84-26.84h65.37
		c27.86,0,50.44,22.58,50.44,50.44v10.2C233.71,532.13,221.69,544.15,206.87,544.15z"/>
	<rect x="87.39" y="456.67" fill="#091943" width="62.02" height="172.86"/>
	<path fill="#0F4073" d="M88.41,629.53l98.59-0.11c14.46,0.11,21.17-3.88,29.82-9.11c39.48-23.85,8.62-61.98,7.84-62.97
		c-12.49-15.92-25.02-25.11-61.62-62.31l0,0c-32.87-25.68-32.87-28.91-74.64-38.36V629.53z"/>
	<path fill="#366590" d="M87.39,629.53l90.16,0c36.72,0.3,21.31-33.82-15.52-71.25l0,0c-36.5-37.09-74.34-56.3-74.64-19.92V629.53z"
		/>
	<path fill="#75B7D7" d="M87.39,629.53h49.59c20.6,0.94,12.33-16.35-8.45-38.16l0,0c-20.59-21.6-41.1-33.04-41.14-12.61
		L87.39,629.53z"/>
</g>
<g id="LOGO_02">
	<text transform="matrix(1 0 0 1 310.6984 589.738)" fill="#FFFFFF" font-family="'Sk-Modernist-Bold'" font-size="135.8273px">D</text>
	<text transform="matrix(1 0 0 1 407.2711 589.738)" fill="#FFFFFF" font-family="'Sk-Modernist-Bold'" font-size="135.8273px">a</text>
	<text transform="matrix(1 0 0 1 489.4479 589.738)" fill="#FFFFFF" font-family="'Sk-Modernist-Bold'" font-size="135.8273px">t</text>
	<text transform="matrix(1 0 0 1 540.7916 589.738)" fill="#FFFFFF" font-family="'Sk-Modernist-Bold'" font-size="135.8273px">a</text>
	<text transform="matrix(1 0 0 1 625.6832 589.738)" fill="#FFFFFF" font-family="'Sk-Modernist-Bold'" font-size="135.8273px">p</text>
	<text transform="matrix(1 0 0 1 711.6608 589.738)" fill="#FFFFFF" font-family="'Sk-Modernist-Bold'" font-size="135.8273px">u</text>
	<text transform="matrix(1 0 0 1 791.3903 589.738)" fill="#FFFFFF" font-family="'Sk-Modernist-Bold'" font-size="135.8273px">l</text>
	<text transform="matrix(1 0 0 1 820.3209 589.738)" fill="#FFFFFF" font-family="'Sk-Modernist-Bold'" font-size="135.8273px">s</text>
	<text transform="matrix(1 0 0 1 891.901 589.738)" fill="#FFFFFF" font-family="'Sk-Modernist-Bold'" font-size="135.8273px">e</text>
	<text transform="matrix(1 0 0 1 968.6432 589.738)" fill="#57A04F" font-family="'Sk-Modernist-Bold'" font-size="135.8273px">.</text>
	<polygon fill="#FFFFFF" points="396.7,604.19 383.95,604.71 392.07,583.53 404.57,583.69 	"/>
</g>
</svg>
